<?xml version="1.0" encoding="UTF-8" standalone="no"?>
<svg
   width="414.4895px"
   height="507.59717px"
   viewBox="0 0 414.4895 507.59717"
   version="1.1"
   id="svg1"
   sodipodi:docname="ShonkyVector.svg"
   inkscape:version="1.3.2 (091e20e, 2023-11-25)"
   xmlns:inkscape="http://www.inkscape.org/namespaces/inkscape"
   xmlns:sodipodi="http://sodipodi.sourceforge.net/DTD/sodipodi-0.dtd"
   xmlns="http://www.w3.org/2000/svg"
   xmlns:svg="http://www.w3.org/2000/svg">
  <defs
     id="defs1" />
  <sodipodi:namedview
     id="namedview1"
     pagecolor="#ffffff"
     bordercolor="#000000"
     borderopacity="0.25"
     inkscape:showpageshadow="2"
     inkscape:pageopacity="0.0"
     inkscape:pagecheckerboard="0"
     inkscape:deskcolor="#d1d1d1"
     inkscape:zoom="0.89853205"
     inkscape:cx="336.66022"
     inkscape:cy="215.90771"
     inkscape:window-width="1320"
     inkscape:window-height="765"
     inkscape:window-x="37"
     inkscape:window-y="35"
     inkscape:window-maximized="0"
     inkscape:current-layer="svg1" />
  <path
     d="m 315.657,1.58728 c -10.70243,1.7574096 -21.05386,5.3883621 -31.216,9.17802 -22.26808,8.304198 -44.21036,17.838737 -64.869,29.5881 -15.36328,8.737689 -29.21941,19.899795 -43.572,30.2139 -4.12881,2.967058 -8.13651,6.099396 -12.235,9.1082 -0.0153,0.0112 -0.0308,0.02201 -0.046,0.0333 -0.0155,0.01151 -0.031,0.02292 -0.046,0.0351 -9.96424,8.112422 -19.55239,16.680461 -29.111,25.2671 -0.9717,0.87289 -2.104,1.956 -2.87,2.668 -20.589,1.105 -37.369852,5.65121 -54.3612,13.364 -15.699334,7.12631 -29.081489,18.6831 -42.3601,29.68 -8.913323,7.38172 -17.37122,15.41089 -24.8723,24.224 -3.3890095,3.98179 -6.87989,9.179 -9.00795,12.842 L 0,189.666 c 0,0 0.96814808,1.07582 1.44165,1.623 7.5469867,8.72131 16.410609,16.53878 22.30015,26.455 3.826955,6.44345 6.136801,13.73348 8.1616,20.949 0.962516,3.43 1.5644,7.536 1.8677,10.523 -1.4218,5.557 -5.081627,16.17746 -7.4769,24.31 -1.90796,6.47799 -4.29921,12.85391 -5.4912,19.501 -1.531696,8.54145 -1.928092,17.27283 -2.0908,25.949 -0.0067,0.35827 0.01472,0.71705 0.0461,1.074 1.032926,11.75036 1.2193,23.79851 4.6738,35.077 3.232955,10.55517 8.724204,20.40367 14.761,29.646 3.500357,5.35905 5.1569,6.436 12.3005,14.746 1.993,2.318 3.3357,3.885 4.0283,4.701 0.5395,0.636 0.9483,1.124 1.2262,1.463 l 0.1533,0.103 c 0.0064,0.013 0.914131,8.47644 1.4119,12.71 0.6933,5.89656 0.786613,11.90784 2.1932,17.676 1.88012,7.71003 4.277146,15.46783 8.2737,22.324 4.619731,7.92524 10.656123,15.21157 17.7416,21.038 10.324583,8.48997 22.48056,14.95666 35.0722,19.443 15.25678,5.43592 31.63582,7.94508 47.818,8.62 7.84491,0.32719 15.67141,-1.15757 23.449,-2.234 0.94206,-0.13038 1.87163,-0.33906 2.807,-0.511 0.27309,-0.0502 0.54621,-0.10023 0.819,-0.152 0.055,-0.0104 0.10951,-0.0242 0.165,-0.032 1.3824,-0.19298 4.172,-0.359 4.172,-0.359 0,0 -1.11492,-2.56017 -1.682,-3.836 -0.56561,-1.27252 -1.11106,-2.55469 -1.716,-3.809 -4.50036,-9.33128 -8.7217,-18.85602 -14.227,-27.632 -6.29896,-10.04116 -9.899,-14 -21.38,-28.415 20.904,8.883 27.06972,12.56564 41.497,15.95 5.67788,1.33192 11.69054,2.73412 17.419,1.64 8.08828,-1.54485 15.1559,-6.65322 22.01,-11.217 6.08285,-4.05024 11.25433,-9.32978 16.718,-14.183 0.0194,-0.0172 0.0384,-0.0349 0.057,-0.053 5.56982,-5.41926 10.89135,-11.08798 16.337,-16.632 2.61967,-2.66699 7.859,-8.001 7.859,-8.001 l -11.133,-1.285 c -36.795,-4.308 -50.649,-5.68135 -75.543,-10.942 -17.45666,-3.68898 -29.899,-7.604 -51.549,-14.415 l -0.026,-0.009 -0.197,-0.062 0.074,-0.112 0.032,-0.047 c 8.525,-12.815 15.91704,-20.50563 25.827,-28.728 10.25447,-8.50821 22.52109,-14.27165 34.148,-20.78 1.99408,-1.11622 4.06711,-2.08514 6.1,-3.129 2.23582,-1.14806 6.706,-3.447 6.706,-3.447 17.999,3.613 32.27273,5.31386 48.572,6.013 11.70145,0.50192 23.596,0.81984 35.112,-1.315 5.08882,-0.94337 10.29792,-2.28599 14.693,-5.019 3.33106,-2.07137 6.4717,-4.85433 8.337,-8.305 0.92957,-1.71963 1.15,-4.238 1.187,-5.743 9.179,-8.528 16.301,-16.041 21.365,-22.539 8.903,3.637 16.97297,7.17528 26.004,8.18 13.35872,1.48618 27.50446,1.1102 40.184,-3.35 0.18053,-0.0635 0.34019,-0.18617 0.476,-0.321 0.13562,-0.13464 0.33224,-0.28207 0.324,-0.473 -0.91211,-21.13186 -8.237,-23.911 -40.237,-49.066 0.36,-0.752 0.858,-1.69685 1.235,-2.569 5.11312,-11.82881 9.76512,-23.86913 13.904,-36.073 0.006,-0.0168 0.0103,-0.0339 0.015,-0.051 0.005,-0.0169 0.009,-0.0339 0.013,-0.051 2.87381,-12.12461 5.97405,-24.22042 8.007,-36.514 1.33591,-8.0785 1.91598,-16.26466 2.743,-24.411 0.49535,-4.8793 0.84929,-9.77214 1.329,-14.653 0.003,-0.0284 0.007,-0.0566 0.009,-0.085 0.002,-0.0283 0.004,-0.0566 0.004,-0.085 0.11293,-15.71387 0.97418,-31.605692 -1.539,-47.1177 -1.52625,-9.420441 -4.60137,-18.586129 -8.148,-27.4459 C 387.58638,46.283404 384.02288,38.428289 379.133,31.4799 373.26714,23.144666 366.50579,15.104619 358.212,9.1803 352.58018,5.1574467 346.07506,1.9721169 339.281,0.652466 331.54475,-0.85019102 323.43368,0.31029758 315.657,1.58728 Z M 382.774,171.709 c 1.01,-0.16 2.002,-0.491 2.976,-0.993 -4.474,27.228 -10.43523,47.49869 -20.859,69.229 -7.54635,15.73179 -18.87262,29.41411 -29.637,43.146 -4.84812,6.18464 -10.923,12.668 -15.683,17.602 -7.692,-10.791 -13.64807,-18.09432 -22.486,-24.979 -8.99204,-7.00473 -19.92706,-11.1095 -30.24,-15.964 -5.60546,-2.6386 -11.755,-5.011 -17.161,-7.138 2.978,-4.1 6.60493,-9.99959 8.333,-15.652 5.17151,-16.91569 1.98057,-35.44677 5.518,-52.778 4.12575,-20.21362 4.31888,-43.89389 18.202,-59.154 25.62517,-28.166788 54.666,-33.6932 105.531,-43.742 2.943,19.054 3.606,39.248 1.991,60.581 0,0 -0.87416,1.90061 -1.334,2.84 -1.88433,3.84947 -3.66484,7.76188 -5.838,11.456 -0.53472,0.90897 -1.293,2.058 -1.766,2.625 -0.038,0.046 -0.074,0.088 -0.107,0.126 -2.027,0.04 -6.42303,-2.4722 -9.541,-3.922 -3.3986,-1.58028 -6.43567,-3.95233 -9.971,-5.197 -0.6617,-0.23296 -1.353,-0.387 -2.064,-0.411 -0.71,-0.024 -1.43228,0.0182 -2.087,0.27 -5.08289,1.95467 -9.0315,6.09187 -13.432,9.3 -4.3872,3.19843 -9.135,7.812 -12.924,9.913 -3.646,-3.253 -10.76622,-13.14322 -15.785,-19.992 -0.36199,-0.49398 -0.59616,-1.08978 -1.032,-1.52 -1.17853,-1.16333 -2.52012,-2.42267 -4.146,-2.737 -1.62842,-0.31482 -3.41628,0.2067 -4.875,0.996 -0.74339,0.40224 -1.31805,1.09679 -1.784,1.802 -0.46599,0.70526 -0.79742,1.51809 -0.958,2.348 -0.16059,0.82995 -0.15603,1.70773 0.013,2.536 0.16908,0.82852 0.53499,1.62122 0.982,2.339 6.42928,10.32382 13.64424,21.07599 23.962,27.515 0.7863,0.49071 1.738,0.675 2.686,0.719 0.947,0.044 1.88273,-0.11729 2.74,-0.469 7.51803,-3.08437 13.52836,-9.02565 19.994,-13.948 2.25084,-1.71359 4.91,-4.357 6.533,-5.417 1.487,0.749 3.55872,2.04791 5.357,3.038 2.66142,1.46531 5.14257,3.37794 8.039,4.295 3.475,1.10024 7.304,1.899 10.853,1.337 z M 211.607,143.682 c 1.70198,12.13194 3.49229,24.82579 9.497,35.504 2.919,5.19088 6.39493,12.78919 12.349,12.911 3.63629,0.0744 6.19449,-4.33568 7.858,-7.57 4.96217,-9.64783 5.17303,-21.36067 4.736,-32.201 -0.65212,-16.17577 -5.03721,-32.23965 -10.912,-47.325 -2.35942,-6.058534 -5.42651,-12.000939 -9.626,-16.9645 -1.9638,-2.321101 -4.04459,-5.959128 -7.078,-5.7531 -1.95916,0.133065 -3.09397,2.57185 -4.027,4.2997 -2.37937,4.406269 -2.98573,9.623569 -3.536,14.6009 -1.55687,14.08234 -1.22936,28.46726 0.739,42.498 z m -50.141,164.676 c 15.407,5.298 29.662,9.632 42.766,13.001 -17.763,8.369 -28.75291,14.26643 -41.101,24.311 -9.18543,7.4719 -16.35518,17.15126 -23.93,26.252 -0.38627,0.46409 -0.788,1.039 -1.095,1.443 -0.399,0.027 -0.882,0.032 -1.45,0.016 -2.007,-0.056 -4.31319,-0.15191 -6.326,-0.84 -4.43986,-1.51778 -10.20093,-2.81711 -12.168,-7.077 -2.62486,-5.6844 0.39079,-12.96145 3.341,-18.484 8.72898,-16.33995 20.072,-23.513 39.963,-38.622 z"
     id="Vector"
     fill="#000000"
     fill-rule="evenodd"
     stroke="none"
     sodipodi:nodetypes="aaaaaaaacaaascaaacaaaaaaccccaaaaaaaaaacaaacaaaaaaccacccccaaacaaaaccaaaacaaaaaaaaaaaaaaascaacaacaaaccaaccaasaacaaaaaaaaasaacaasaaaaaaaaaaaccaaccaaac" />
</svg>
